<?xml version="1.0" encoding="utf-8"?>
<!-- Generator: Adobe Illustrator 30.2.1, SVG Export Plug-In . SVG Version: 9.03 Build 0)  -->
<svg version="1.1" id="Layer_1" xmlns="http://www.w3.org/2000/svg" xmlns:xlink="http://www.w3.org/1999/xlink" x="0px" y="0px"
	 viewBox="0 0 172 172" style="enable-background:new 0 0 172 172;" xml:space="preserve">
<style type="text/css">
	.st0{fill:#1F3D51;}
</style>
<g>
	<path class="st0" d="M112.9,68.7c1-1.6,1.4-3.6,1.4-5.8c0-2.2-0.5-4.1-1.4-5.8c-1-1.6-2.3-2.9-4-3.8c-1.7-0.9-3.7-1.4-5.9-1.4
		c-2.3,0-4.2,0.5-5.9,1.4c-1.7,0.9-3,2.2-4,3.8c-1,1.6-1.4,3.6-1.4,5.8c0,2.2,0.5,4.1,1.4,5.8c1,1.6,2.3,2.9,4,3.8
		c1.7,0.9,3.7,1.4,5.9,1.4c2.3,0,4.2-0.5,5.9-1.4C110.6,71.7,112,70.4,112.9,68.7z"/>
	<polygon class="st0" points="147.3,139.4 147.3,139.4 147.3,115.8 137.6,115.8 137.6,129.8 113.6,129.8 113.6,96 103.9,96 
		103.9,129.8 103.9,139.4 103.9,139.5 147.3,139.5 	"/>
	<polygon class="st0" points="40.4,119.7 50,119.7 50,96.1 40.4,96.1 40.4,96.2 33.1,96.2 33.1,30.4 137.6,30.4 137.6,96 123.6,96 
		123.6,96.1 121.8,96.1 121.8,119.7 131.5,119.7 131.5,105.7 137.6,105.7 147.3,105.7 147.3,96 147.3,20.7 147,20.7 137.6,20.7 
		33.1,20.7 23.5,20.7 23.5,30.4 23.5,96.2 23.5,105.7 23.5,105.9 40.4,105.9 	"/>
	<polygon class="st0" points="23.5,139.5 66.9,139.5 66.9,139.4 66.9,129.8 66.9,96 57.2,96 57.2,129.8 33.1,129.8 33.1,115.8 
		23.5,115.8 23.5,139.4 23.5,139.4 	"/>
	<polygon class="st0" points="73.1,147.2 15.2,147.2 15.2,133.3 5.5,133.3 5.5,156.9 39.4,156.9 39.4,156.9 82.8,156.9 82.8,156.9 
		82.8,156.5 82.9,156.5 82.9,96 73.2,96 	"/>
	<path class="st0" d="M73,53.3c-1.7-0.9-3.7-1.4-5.9-1.4c-2.3,0-4.2,0.5-5.9,1.4c-1.7,0.9-3,2.2-4,3.8c-1,1.6-1.4,3.6-1.4,5.8
		c0,2.2,0.5,4.1,1.4,5.8c1,1.6,2.3,2.9,4,3.8c1.7,0.9,3.7,1.4,5.9,1.4c2.3,0,4.2-0.5,5.9-1.4c1.7-0.9,3-2.2,4-3.8
		c1-1.6,1.4-3.6,1.4-5.8c0-2.2-0.5-4.1-1.4-5.8C76.1,55.5,74.8,54.3,73,53.3z"/>
	<polygon class="st0" points="155.6,133.3 155.6,147.2 97.6,147.2 97.6,96 87.9,96 87.9,156.5 87.9,156.5 87.9,156.9 87.9,156.9 
		131.3,156.9 131.3,156.9 165.3,156.9 165.3,133.3 	"/>
</g>
<rect x="82" y="120.3" class="st0" width="7.5" height="9.6"/>
</svg>
