<?xml version="1.0" encoding="UTF-8"?>
<svg id="Layer_1" data-name="Layer 1" xmlns="http://www.w3.org/2000/svg" version="1.1" viewBox="0 0 225.2 164.8">
  <defs>
    <style>
      .cls-1 {
        fill: #fff;
        stroke-width: 0px;
      }
    </style>
  </defs>
  <g>
    <polygon class="cls-1" points="100 7 94.8 7 94.8 90.5 141.8 90.5 141.8 85.3 100 85.3 100 7"/>
    <polygon class="cls-1" points="122.4 63 122.4 7 117.2 7 117.2 68.1 141.8 68.1 141.8 63 122.4 63"/>
  </g>
  <g>
    <path class="cls-1" d="M17.3,110.9h4.9v14.7h7.7v4.3h-12.7v-19Z"/>
    <path class="cls-1" d="M34.8,110.9h12.5v4.3h-7.6v2.8h6.6v4.3h-6.6v3.3h7.7v4.3h-12.7v-19Z"/>
    <path class="cls-1" d="M52.2,110.9h5.3l2.4,12.8h0l3-12.8h5l2.9,12.8h.1l2.4-12.8h4.7l-4.4,19h-6l-2.6-10.1h0l-2.5,10.1h-6.1l-4.3-19Z"/>
    <path class="cls-1" d="M88.2,110.9v19h-4.9v-19h4.9Z"/>
    <path class="cls-1" d="M105.9,115.6c-1.5-.6-3.4-1.1-4.9-1.1s-2.2.4-2.2,1.4c0,3,8,1.7,8,8.2s-3.6,6.2-7.4,6.2-3.8-.4-5.4-1.1v-4.5c1.6.8,3.8,1.5,5.5,1.5s2.4-.4,2.4-1.6c0-3.2-8-1.7-8-8.3s3.4-5.9,7.1-5.9,3.5.3,5,.9v4.4Z"/>
    <path class="cls-1" d="M129.8,129.8h-7.3v-19h6.7c5,0,7.3,1.5,7.3,4.8s-.9,3.3-3,3.9c2.2.2,4.1,1.9,4.1,4.5,0,4.6-3.3,5.9-7.9,5.9ZM129.4,115h-2v2.8h2.1c1.3,0,2-.6,2-1.5s-.8-1.3-2.1-1.3ZM130.4,122h-3v3.6h2.9c1.5,0,2.3-.7,2.3-1.8s-.9-1.8-2.2-1.8Z"/>
    <path class="cls-1" d="M150.9,130.3c-5,0-8-2.5-8-8.1v-11.3h4.9v11.8c0,2.4,1.3,3.4,3.3,3.4s3.2-1,3.2-3.4v-11.9h4.9v11.4c0,5.2-3.1,8-8.3,8Z"/>
    <path class="cls-1" d="M170.3,110.9v19h-4.9v-19h4.9Z"/>
    <path class="cls-1" d="M176.6,110.9h4.9v14.7h7.7v4.3h-12.7v-19Z"/>
    <path class="cls-1" d="M200.4,129.8h-6.4v-19h6.7c6.5,0,9.9,3.1,9.9,9.2s-3.4,9.7-10.2,9.7ZM200.3,115.1h-1.3v10.5h1.3c3.9,0,5.3-1.4,5.3-5.4s-1.6-5.1-5.3-5.1Z"/>
  </g>
  <g>
    <path class="cls-1" d="M67.5,147.2h5v1h-3.9v4.1h3.2v1h-3.2v4.2h4.1v1h-5.2v-11.2Z"/>
    <path class="cls-1" d="M80.6,156.7c.5.5,1.3.9,2.1.9s1.8-.8,1.8-1.9c0-2.7-4.2-2.4-4.2-5.7s1.1-2.9,3-2.9,1.6.2,2.2.7l-.4,1c-.4-.3-1.2-.6-1.8-.6-1.3,0-1.9.9-1.9,1.9,0,2.6,4.2,2.3,4.2,5.7s-1.1,3-2.9,3-1.9-.4-2.6-1l.5-.9Z"/>
    <path class="cls-1" d="M96,148.2h-3v-1h7.1v1h-3.1v10.3h-1.1v-10.3Z"/>
    <path class="cls-1" d="M116.7,157.7c0-3.7,4.3-4.4,4.3-7.6s-.7-2.1-1.8-2.1-1.5.4-1.9,1l-.8-.6c.5-.9,1.7-1.4,2.7-1.4,1.7,0,2.8,1.2,2.8,3,0,3.6-4.3,4.4-4.3,7.4h4.5v1h-5.5c0-.3,0-.5,0-.8Z"/>
    <path class="cls-1" d="M130.3,152.8c0-3.2.6-5.8,3.1-5.8s3.1,2.6,3.1,5.8-.6,5.8-3.1,5.8-3.1-2.6-3.1-5.8ZM135.3,152.8c0-2.7-.3-4.8-1.9-4.8s-1.9,2.1-1.9,4.8.3,4.8,1.9,4.8,1.9-2.1,1.9-4.8Z"/>
    <path class="cls-1" d="M144.4,157.5h1.9v-8.2c0-.3,0-.6,0-.6h0s0,.2-.4.7l-.9,1.1-.7-.6,2-2.6h1v10.3h1.9v.9h-4.9v-.9Z"/>
    <path class="cls-1" d="M157,152.8c0-3.2.6-5.8,3.1-5.8s3.1,2.6,3.1,5.8-.6,5.8-3.1,5.8-3.1-2.6-3.1-5.8ZM162,152.8c0-2.7-.3-4.8-1.9-4.8s-1.9,2.1-1.9,4.8.3,4.8,1.9,4.8,1.9-2.1,1.9-4.8Z"/>
  </g>
</svg>