<svg width="200" height="150" viewBox="0 0 200 150" fill="none" xmlns="http://www.w3.org/2000/svg">
<g clip-path="url(#clip0_430_6618)">
<path d="M67.6733 59.4089C67.6523 63.5214 64.4661 66.6959 60.4627 66.6991C59.0286 66.6991 57.6107 66.8202 56.2284 67.2319C53.5702 68.0231 52.0377 69.8106 51.558 72.5183C51.2673 74.1621 51.2916 75.8058 51.6242 77.4431C52.2088 80.3204 53.9917 82.0433 56.821 82.6407C58.0177 82.8926 59.2612 83.0008 60.4853 83.0218C63.9558 83.0831 66.8788 85.3986 67.5974 88.7474C68.4549 92.7404 65.842 96.606 61.7901 97.3422C57.8288 98.0624 54.0143 95.3239 53.4443 91.3131C53.3151 90.4105 53.3942 89.4772 53.2585 88.5762C53.0987 87.5138 52.9146 86.4336 52.5577 85.4276C51.8229 83.3608 50.3113 82.0562 48.1909 81.4894C46.2062 80.9582 44.2005 80.9485 42.2125 81.4475C39.4316 82.145 37.8264 84.0212 37.2289 86.75C36.9834 87.8706 36.8914 89.038 36.8574 90.186C36.7751 92.939 35.6495 95.0833 33.2836 96.5155C30.8176 98.0075 27.5927 97.8073 25.3059 96.0747C22.9288 94.2744 21.9066 91.2889 22.6817 88.4067C23.4246 85.6456 25.834 83.5272 28.6811 83.1978C29.9036 83.0557 31.1439 83.0767 32.3631 82.9184C34.1734 82.6843 35.84 82.0804 37.0964 80.6579C37.8926 79.7553 38.3464 78.6864 38.5854 77.5222C38.9504 75.7493 38.9746 73.9683 38.6032 72.197C37.975 69.1954 36.0468 67.4612 33.0963 66.9058C31.7317 66.649 30.3219 66.6345 28.9298 66.5328C25.3124 66.2712 22.3878 63.1355 22.3814 59.5009C22.3749 55.6612 24.9377 52.7273 28.7473 52.2139C32.7814 51.6697 36.6507 54.9427 36.7476 58.9939C36.7815 60.4213 36.8187 61.8454 37.1756 63.2405C37.9863 66.4052 40.055 68.1781 43.3123 68.5027C44.7705 68.648 46.2223 68.6544 47.6661 68.3509C50.5584 67.7405 52.2718 65.9289 52.8855 63.1C53.1326 61.9649 53.2392 60.7813 53.2537 59.6188C53.3021 55.9567 55.7164 53.039 59.3209 52.3931C63.3792 51.6665 67.3681 54.7828 67.6378 58.8889C67.6523 59.0988 67.6652 59.3088 67.6717 59.4089H67.6733Z" fill="white"/>
<path d="M114.382 91.2177C116.667 91.3098 118.916 91.3986 121.166 91.4971C121.356 91.5051 121.547 91.581 121.733 91.6392C123.868 92.3012 124.837 94.5052 123.805 96.5009C123.55 96.995 123.039 97.3583 122.635 97.7701C122.535 97.8718 122.388 97.9251 122.224 98.0252C123.01 98.3901 123.677 98.8277 124.121 99.543C125.255 101.372 124.446 104.119 122.5 105.021C121.625 105.428 120.694 105.572 119.737 105.572C117.964 105.572 116.189 105.572 114.383 105.572V91.2161L114.382 91.2177ZM116.186 103.946C117.7 103.946 119.175 104.037 120.633 103.92C122.082 103.804 122.745 102.934 122.744 101.498C122.744 100.061 121.986 99.1619 120.567 98.9972C119.869 98.9149 119.16 98.9262 118.456 98.9149C117.71 98.9019 116.962 98.9116 116.186 98.9116V103.946ZM116.189 92.7888V97.4148C117.691 97.3422 119.167 97.3567 120.618 97.1759C121.838 97.0241 122.384 96.1683 122.34 94.8782C122.304 93.8109 121.683 93.0811 120.497 92.9697C119.081 92.8372 117.653 92.8437 116.19 92.7888H116.189Z" fill="white"/>
<path d="M150.532 67.7969C150.792 67.7969 151.027 67.7936 151.265 67.7969C153.009 67.8179 154.753 67.8146 156.494 67.8792C157.038 67.8986 157.59 68.0584 158.115 68.228C159.543 68.6865 160.247 69.7086 160.315 71.1893C160.376 72.5424 159.922 73.6307 158.703 74.3282C158.613 74.3799 158.519 74.4283 158.367 74.5123C158.54 74.5995 158.676 74.6657 158.81 74.7367C160.173 75.4504 160.82 76.5774 160.757 78.113C160.694 79.6582 160.111 80.9241 158.614 81.5167C157.821 81.8299 156.936 82.0156 156.082 82.0544C154.327 82.1351 152.563 82.0786 150.804 82.077C150.717 82.077 150.63 82.0544 150.535 82.0415V67.7985L150.532 67.7969ZM152.329 80.4704C153.807 80.4704 155.249 80.5237 156.684 80.4494C157.489 80.4074 158.256 80.0926 158.647 79.282C159.519 77.4752 158.498 75.6555 156.512 75.4552C156.392 75.4439 156.271 75.4342 156.151 75.4342C154.995 75.4229 153.837 75.4133 152.681 75.4052C152.568 75.4052 152.455 75.4294 152.331 75.4439V80.4704H152.329ZM152.335 73.8147C153.611 73.8147 154.842 73.826 156.071 73.8067C156.381 73.8018 156.696 73.7275 156.998 73.642C158.01 73.3578 158.529 72.5924 158.496 71.467C158.466 70.3965 157.97 69.6602 156.92 69.5326C155.412 69.3502 153.883 69.3356 152.335 69.2485V73.8131V73.8147Z" fill="white"/>
<path d="M125.024 82.0755C124.488 82.0755 123.963 82.0981 123.441 82.0609C123.304 82.0512 123.141 81.8849 123.052 81.7493C120.82 78.3278 118.598 74.9015 116.373 71.4768C116.279 71.3315 116.176 71.1926 115.985 71.0683V82.048H114.199V67.7986C114.758 67.7986 115.307 67.7808 115.854 67.8131C115.976 67.8196 116.119 67.9843 116.2 68.1086C118.377 71.4945 120.546 74.8837 122.716 78.2729C122.858 78.4957 123.005 78.7137 123.227 79.0496V67.8276H125.022V82.0738L125.024 82.0755Z" fill="white"/>
<path d="M89.0291 47.5909V58.6336H87.2656V44.3535C87.834 44.3535 88.4138 44.3309 88.9903 44.3712C89.1146 44.3793 89.2422 44.6005 89.3343 44.7458C91.5499 48.1948 93.7608 51.6485 95.9732 55.0991C96.0669 55.2444 96.167 55.3849 96.3366 55.6336V44.3761H98.1081V58.6562C97.5784 58.6562 97.0423 58.674 96.5077 58.6417C96.385 58.6336 96.2397 58.4738 96.1589 58.3494C94.0353 55.091 91.9181 51.8278 89.7994 48.5661C89.5797 48.2287 89.3585 47.8928 89.1373 47.5554C89.1001 47.5667 89.063 47.578 89.0258 47.5893L89.0291 47.5909Z" fill="white"/>
<path d="M127.658 55.4819V44.3795H129.418V58.6563C128.884 58.6563 128.346 58.679 127.815 58.6402C127.682 58.6305 127.534 58.4448 127.443 58.3076C125.187 54.849 122.939 51.3855 120.69 47.9237C120.609 47.7993 120.523 47.6782 120.37 47.4522V58.6305H118.593V44.3504C119.147 44.3504 119.687 44.3246 120.22 44.3665C120.363 44.3778 120.526 44.5732 120.622 44.7218C122.824 48.1433 125.019 51.5696 127.215 54.9943C127.327 55.1687 127.442 55.3398 127.556 55.5126C127.59 55.5013 127.626 55.4916 127.66 55.4803L127.658 55.4819Z" fill="white"/>
<path d="M114.982 51.4791C114.926 52.6158 114.782 53.7251 114.416 54.8037C113.382 57.8521 110.816 59.1665 107.907 59.0018C104.141 58.787 102.258 56.2326 101.853 52.9436C101.669 51.4549 101.732 49.9742 102.192 48.5323C103.179 45.4354 105.706 43.7545 108.941 44.0306C112.085 44.2987 114.191 46.2443 114.747 49.4252C114.864 50.1034 114.906 50.7945 114.982 51.4791ZM113.093 51.5049C112.923 50.5959 112.833 49.661 112.568 48.7794C111.982 46.8208 110.63 45.7987 108.584 45.6356C106.811 45.4935 105.18 46.3348 104.455 47.9543C103.389 50.3327 103.384 52.774 104.485 55.1443C105.207 56.6993 106.577 57.3661 108.255 57.3903C109.945 57.4162 111.292 56.7655 112.15 55.2558C112.807 54.098 112.969 52.8241 113.091 51.5033L113.093 51.5049Z" fill="white"/>
<path d="M140.517 71.5363C139.891 71.6429 139.331 71.7382 138.751 71.8367C138.672 71.6251 138.602 71.4298 138.528 71.2376C137.971 69.7989 136.979 69.0949 135.439 69.0465C133.116 68.9722 131.526 70.18 130.926 72.5051C130.502 74.1505 130.51 75.8104 130.938 77.4525C131.543 79.7776 133.304 80.9773 135.805 80.811C136.853 80.7415 137.859 80.5139 138.752 79.9326C138.888 79.8438 139.024 79.642 139.029 79.4886C139.053 78.4681 139.041 77.446 139.041 76.3658H135.471V74.7624H140.765C140.776 74.8642 140.8 74.9772 140.8 75.0918C140.802 76.7759 140.808 78.4584 140.794 80.1425C140.794 80.3137 140.713 80.5333 140.59 80.6447C138.468 82.6016 134.206 83.0392 131.74 81.565C130.04 80.5478 129.207 78.959 128.874 77.0811C128.525 75.1128 128.585 73.1607 129.352 71.2796C130.423 68.6509 132.826 67.2058 135.66 67.4512C137.15 67.5804 138.494 68.0018 139.463 69.2257C139.991 69.8942 140.33 70.6531 140.519 71.5363H140.517Z" fill="white"/>
<path d="M138.362 94.6552C137.777 94.7715 137.234 94.8797 136.669 94.9927C136.538 94.6843 136.414 94.384 136.283 94.0869C135.963 93.3619 135.393 92.913 134.647 92.7144C133.506 92.4109 132.349 92.4189 131.224 92.7855C129.899 93.215 129.336 94.4243 129.799 95.7355C130.059 96.4685 130.655 96.8189 131.345 96.982C132.425 97.2387 133.525 97.4115 134.612 97.6424C135.649 97.862 136.659 98.1736 137.465 98.9018C139.439 100.688 138.819 104.267 136.298 105.357C134.147 106.286 131.936 106.187 129.819 105.228C128.302 104.542 127.627 103.206 127.471 101.516C128.044 101.516 128.593 101.505 129.142 101.527C129.226 101.53 129.354 101.677 129.375 101.774C129.686 103.282 130.637 104.077 132.134 104.256C133.078 104.369 134.026 104.429 134.946 104.119C136.359 103.642 137.018 102.129 136.424 100.759C136.128 100.079 135.545 99.7237 134.877 99.5541C133.961 99.3232 133.011 99.2231 132.099 98.9777C131.164 98.7258 130.226 98.4368 129.345 98.038C128.575 97.6892 128.136 96.9787 127.931 96.152C127.354 93.8221 128.375 91.9571 130.668 91.2741C132.286 90.793 133.929 90.7962 135.555 91.3032C137.186 91.8102 137.992 93.0067 138.36 94.6552H138.362Z" fill="white"/>
<path d="M176.367 82.0512V67.8259H185.598V69.4487H178.247V73.8923H185.188V75.5441H178.247V80.4543H186C185.893 81.0242 185.798 81.5361 185.701 82.0512H176.367Z" fill="white"/>
<path d="M98.5054 105.585C98.9091 104.545 99.2918 103.557 99.6762 102.567C101.088 98.9485 102.505 95.3317 103.901 91.7068C104.028 91.3757 104.19 91.2756 104.522 91.2982C105.015 91.3321 105.627 91.1545 105.971 91.3887C106.312 91.6196 106.393 92.2444 106.57 92.703C108.169 96.8123 109.765 100.922 111.362 105.031C111.426 105.196 111.484 105.362 111.567 105.583C110.924 105.583 110.339 105.603 109.758 105.567C109.64 105.561 109.482 105.375 109.429 105.238C108.959 104.038 108.508 102.83 108.043 101.6H103.03C102.309 101.6 101.824 101.934 101.575 102.601C101.249 103.471 100.905 104.337 100.6 105.213C100.497 105.509 100.353 105.604 100.049 105.59C99.5567 105.564 99.0609 105.583 98.5054 105.583V105.585ZM104.98 93.4264C104.141 95.6659 103.344 97.7957 102.533 99.9609H107.468C106.648 97.8053 105.839 95.6804 104.98 93.4264Z" fill="white"/>
<path d="M18.3554 105.932C15.9088 105.93 14 104.012 14 101.553C14 99.1423 15.9411 97.1998 18.349 97.1982C20.7843 97.1982 22.7416 99.1455 22.7416 101.569C22.7416 104.002 20.8004 105.932 18.3554 105.932Z" fill="white"/>
<path d="M67.252 101.539C67.2585 99.1085 69.2109 97.1854 71.6591 97.1983C74.0605 97.2096 75.9855 99.1618 75.9806 101.581C75.9758 104.066 74.0492 105.939 71.5041 105.93C69.1463 105.924 67.2471 103.961 67.2536 101.539H67.252Z" fill="white"/>
<path d="M18.3296 52.7354C15.8749 52.7306 13.992 50.7978 14 48.287C14.0065 45.9215 15.9622 44.0146 18.3765 44.0178C20.8134 44.0211 22.7513 45.9683 22.7416 48.4017C22.7319 50.8285 20.7859 52.7403 18.3296 52.7354Z" fill="white"/>
<path d="M71.8724 52.7354C69.4209 52.7354 67.5186 50.8172 67.5234 48.3548C67.5282 45.9086 69.4484 44.0114 71.9176 44.0178C74.3303 44.0227 76.2488 45.9538 76.2504 48.3791C76.252 50.8237 74.3287 52.7387 71.8724 52.737V52.7354Z" fill="white"/>
<path d="M99.3921 67.8228H101.228V68.3766C101.228 71.036 101.211 73.6954 101.24 76.3547C101.248 77.0684 101.332 77.7982 101.5 78.4925C101.848 79.9312 102.727 80.653 104.205 80.7773C104.725 80.8209 105.264 80.8209 105.776 80.7337C107.237 80.4834 108.035 79.5065 108.245 77.7627C108.308 77.2428 108.34 76.7148 108.342 76.1916C108.352 73.5775 108.347 70.9633 108.347 68.3476V67.8293H110.172C110.18 67.9811 110.196 68.1393 110.196 68.2975C110.196 71.078 110.231 73.8584 110.177 76.6373C110.159 77.5399 110.01 78.4699 109.742 79.3305C109.264 80.8693 108.195 81.8656 106.588 82.2386C105.425 82.5098 104.26 82.5292 103.102 82.2644C101.026 81.7897 99.7926 80.351 99.5035 78.105C99.4325 77.556 99.3986 76.9974 99.3953 76.4435C99.384 73.7535 99.3905 71.0651 99.3905 68.375V67.8228H99.3921Z" fill="white"/>
<path d="M87.2607 67.8228H96.104V69.4278H89.1534V74.0797H95.6567V75.7573H89.1308V82.0432H87.2624V67.8244L87.2607 67.8228Z" fill="white"/>
<path d="M165.978 80.4237H173.381C173.295 80.9533 173.229 81.4361 173.131 81.9124C173.116 81.9819 172.953 82.069 172.859 82.069C169.974 82.0771 167.088 82.0755 164.17 82.0755V67.8325H165.977V80.4237H165.978Z" fill="white"/>
<path d="M87.2671 91.3228H89.1033V103.933H96.5141C96.4156 104.508 96.3268 105.025 96.2347 105.561H87.2671V91.3228Z" fill="white"/>
<path d="M144.543 67.8196H146.326V82.048H144.543V67.8196Z" fill="white"/>
</g>
<defs>
<clipPath id="clip0_430_6618">
<rect width="172" height="62" fill="white" transform="translate(14 44)"/>
</clipPath>
</defs>
</svg>
