<?xml version="1.0" encoding="UTF-8"?>
<svg id="Layer_1" data-name="Layer 1" xmlns="http://www.w3.org/2000/svg" version="1.1" viewBox="0 0 225.2 81.6">
  <defs>
    <style>
      .cls-1 {
        fill: #fff;
        stroke-width: 0px;
      }
    </style>
  </defs>
  <path class="cls-1" d="M30.3,43.5c-.3-.4-.8-.6-1.2-.5-.5,0-.9.4-1,.8l-4,9.7c-.1.3-.1.7,0,1,.1.3.4.6.7.7h.2c.2.1.3.2.5.2.5,0,1-.3,1.2-.8l2.9-7.1s0,0,0,0c0,0,0,0,.1,0l4.8,6c.5.6,1.3.7,1.9.2h.2c.3-.3.5-.7.5-1,0-.4,0-.7-.3-1l-6.5-8.2Z"/>
  <path class="cls-1" d="M26.4,33c.3.3.6.5,1,.5s.1,0,.2,0c.5,0,.9-.4,1.1-.8l4-9.7c.1-.3.1-.7,0-1-.1-.3-.4-.6-.7-.7h-.2c-.7-.3-1.5,0-1.7.7l-2.9,7.1s0,0,0,0c0,0,0,0-.1,0l-4.8-6c-.5-.6-1.3-.7-1.9-.2h-.2c-.3.3-.5.7-.5,1,0,.4,0,.7.3,1l6.5,8.2Z"/>
  <path class="cls-1" d="M32.2,35.3c.3.3.6.5,1.1.5s.1,0,.2,0l10.5-1.5c.4,0,.7-.2.9-.5.2-.3.3-.6.3-1v-.2c-.1-.7-.8-1.2-1.5-1.1l-7.7,1.1c0,0,0,0-.1,0,0,0,0,0,0,0l2.9-7.1c.1-.3.1-.7,0-1-.1-.3-.4-.6-.7-.7h-.2c-.7-.3-1.5,0-1.7.7l-4,9.7c-.2.4-.1.9.2,1.3"/>
  <path class="cls-1" d="M24.5,41.2c-.3-.4-.8-.6-1.2-.5l-10.5,1.5c-.4,0-.7.2-.9.5-.2.3-.3.6-.3,1v.2c.1.7.8,1.2,1.5,1.1l7.7-1.1c0,0,0,0,.1,0,0,0,0,0,0,0l-2.9,7.1c-.1.3-.1.7,0,1,.1.3.4.6.7.7h.2c.2.1.3.2.5.2.5,0,1-.3,1.2-.8l4-9.7c.2-.4.1-.9-.2-1.3"/>
  <path class="cls-1" d="M46,39.1v-.2c-.1-.7-.8-1.2-1.5-1.1l-10.5,1.4c-.5,0-.9.4-1.1.8-.2.4-.1.9.2,1.3l6.5,8.2c.3.3.7.5,1.1.5s.6,0,.8-.3h.2c.3-.3.5-.7.5-1,0-.4,0-.7-.3-1l-4.8-6s0,0,0,0c0,0,0,0,0,0l7.7-1.1c.4,0,.7-.2.9-.5.2-.3.3-.6.3-1"/>
  <path class="cls-1" d="M12.3,38.7l10.5-1.5c.5,0,.9-.4,1.1-.8.2-.4.1-.9-.2-1.3l-6.5-8.2c-.5-.6-1.3-.7-1.9-.2h-.2c-.3.3-.5.7-.5,1,0,.4,0,.7.3,1l4.8,6h0s0,0,0,0c0,0,0,0,0,0l-7.7,1.1c-.4,0-.7.2-.9.5-.2.3-.3.6-.2,1v.2c.1.7.7,1.1,1.4,1.1s.1,0,.2,0"/>
  <path class="cls-1" d="M75.2,49.9c-1.9,1.9-4.4,2.9-7.4,2.9s-5.5-1-7.5-2.9c-1.3-1.3-2.2-2.9-2.7-4.6-.3-1.4.8-2.8,2.3-2.9,1.2,0,2.2.7,2.5,1.8.3.9.7,1.7,1.3,2.4,1.1,1.1,2.4,1.6,4.1,1.6s2.9-.6,4-1.7c1-1.1,1.6-2.5,1.6-4.3v-16.7c0-1.3,1.1-2.3,2.4-2.3h0c1.3,0,2.4,1.1,2.4,2.3v16.9c0,3-1,5.5-2.9,7.4"/>
  <path class="cls-1" d="M118.3,28.5v8.3c0,.3.2.5.5.5h5.8c1.6,0,2.9-.4,3.8-1.3,1-.9,1.4-2,1.4-3.4s-.5-2.5-1.4-3.4c-1-.9-2.2-1.3-3.8-1.3h-5.8c-.3,0-.5.2-.5.5M129.5,51.4l-5.5-9.3c0-.2-.3-.3-.5-.3h-4.7c-.3,0-.5.2-.5.5v7.9c0,1.3-1,2.3-2.3,2.3h-.2c-1.3,0-2.3-1-2.3-2.3v-25.6c0-.6.5-1.1,1.1-1.1h10.4c2.8,0,5.2.9,7.1,2.6,1.9,1.7,2.8,3.9,2.8,6.6s-.5,3.7-1.6,5.2c-1.1,1.5-2.5,2.6-4.4,3.2l4.7,7.9c.9,1.5-.2,3.5-2,3.5s-1.6-.4-2-1.1"/>
  <path class="cls-1" d="M150.7,48.1c3,0,5.4-.9,7.3-2.8,1.9-1.9,2.8-4.3,2.8-7.2s-.9-5.3-2.8-7.2c-1.9-1.9-4.3-2.8-7.3-2.8h-4.9c-.3,0-.5.2-.5.5v19c0,.3.2.5.5.5h4.9ZM150.8,23.5c2.1,0,4.1.4,6,1.1,1.9.7,3.4,1.7,4.7,3,1.3,1.3,2.3,2.8,3.1,4.6.7,1.8,1.1,3.7,1.1,5.8s-.6,5.2-1.9,7.5c-1.3,2.2-3.1,3.9-5.3,5.2-2.3,1.2-4.8,1.9-7.7,1.9h-9.3c-.6,0-1.1-.5-1.1-1.1v-26.9c0-.6.5-1.1,1.1-1.1h9.3Z"/>
  <path class="cls-1" d="M175.9,48h10c1.2,0,2.2,1,2.2,2.2h0c0,1.3-1,2.3-2.2,2.3h-14.3c-.6,0-1.1-.5-1.1-1.1v-26.9c0-.6.5-1.1,1.1-1.1h13.8c1.2,0,2.2,1,2.2,2.2h0c0,1.3-1,2.3-2.2,2.3h-9.5c-.3,0-.5.2-.5.5v6.5c0,.3.2.5.5.5h8.4c1.2,0,2.2,1,2.2,2.2h0c0,1.2-1,2.2-2.2,2.2h-8.4c-.3,0-.5.2-.5.5v7c0,.3.2.5.5.5"/>
  <path class="cls-1" d="M214.5,23.5h0c1.3,0,2.3,1,2.3,2.3v24c0,1.5-1.2,2.6-2.7,2.6h0c-.9,0-1.7-.4-2.2-1.1l-13.5-18.3c-.3-.4-1-.2-1,.3v16.7c0,1.3-1.1,2.3-2.3,2.3h0c-1.3,0-2.3-1-2.3-2.3v-23.8c0-1.6,1.3-2.8,2.9-2.8h0c.9,0,1.8.4,2.3,1.2l13.1,17.8c.3.4,1,.2,1-.3v-16.4c0-1.3,1.1-2.3,2.3-2.3"/>
  <path class="cls-1" d="M108.1,49.3l-10-23.7c-.5-1.2-1.8-2.1-3.1-2.1s-2.6.8-3.1,2.1l-9.7,23.7c-.6,1.5.5,3.2,2.2,3.2s1.9-.6,2.2-1.5l7.6-19.2c.3-.8,1.4-.8,1.7,0l4,9.9h-4.8c-1.2,0-2.3,1-2.3,2.2s1,2.2,2.3,2.2h6.6l1.9,4.8c.4.9,1.2,1.5,2.2,1.5h0c1.7,0,2.8-1.7,2.2-3.2"/>
</svg>