<?xml version="1.0" encoding="UTF-8"?>
<svg id="Layer_1" data-name="Layer 1" xmlns="http://www.w3.org/2000/svg" version="1.1" viewBox="0 0 225.2 81.6">
  <defs>
    <style>
      .cls-1 {
        fill: #fff;
        stroke-width: 0px;
      }
    </style>
  </defs>
  <path class="cls-1" d="M65.4,31.3v19.3c0,1.3.3,2.3.9,2.8.6.6,1.7.9,3.1.9h4.4v6h-5.7c-3.3,0-5.7-.8-7.5-2.3-1.7-1.5-2.6-4-2.6-7.4v-19.3h-4.1v-5.9h4.2v-8.7h7.3v8.7h8.5v5.9h-8.5Z"/>
  <path class="cls-1" d="M102.1,36.6c-1-1.8-2.3-3.1-3.9-4.1-1.6-.9-3.3-1.4-5.2-1.4s-3.6.5-5.2,1.4-2.9,2.2-3.9,4-1.5,3.8-1.5,6.2.5,4.5,1.5,6.3,2.3,3.2,3.9,4.2,3.4,1.4,5.2,1.4,3.6-.5,5.2-1.4,2.9-2.3,3.9-4.1,1.5-3.9,1.5-6.3-.5-4.4-1.5-6.2M77.2,33.4c1.5-2.7,3.4-4.8,6-6.3,2.5-1.5,5.3-2.3,8.3-2.3s5.1.5,7.2,1.6c2,1.1,3.7,2.4,4.9,4v-5.1h7.3v34.9h-7.3v-5.2c-1.2,1.6-2.9,3-5,4.1s-4.5,1.6-7.2,1.6-5.7-.8-8.2-2.3-4.5-3.7-5.9-6.5c-1.5-2.8-2.2-5.9-2.2-9.4-.1-3.3.6-6.4,2.1-9.1"/>
  <path class="cls-1" d="M125.9,31.3v19.3c0,1.3.3,2.3.9,2.8.6.6,1.7.9,3.1.9h4.4v6h-5.7c-3.3,0-5.7-.8-7.5-2.3-1.7-1.5-2.6-4-2.6-7.4v-19.3h-4.1v-5.9h4.1v-8.7h7.3v8.7h8.5v5.9h-8.4Z"/>
  <path class="cls-1" d="M169.6,29.2v31.2h-7.2v-4.1c-1.1,1.4-2.6,2.6-4.5,3.4-1.8.8-3.8,1.2-5.9,1.2s-5.2-.6-7.4-1.7c-2.2-1.1-3.9-2.8-5.1-5.1-1.2-2.2-1.9-4.9-1.9-8.1v-20.6h7.2v19.5c0,3.1.8,5.5,2.3,7.2,1.6,1.7,3.7,2.5,6.4,2.5s4.9-.8,6.4-2.5c1.6-1.7,2.4-4.1,2.4-7.2v-15.7h7.3Z"/>
  <path class="cls-1" d="M28,38.8c1.8.8,4.1,1.6,7,2.3,2.3.6,4.1,1.1,5.4,1.6s2.4,1.2,3.2,2.2c.7.8,1.1,1.7,1.3,2.9h7.2c0-2.6-.7-4.7-1.9-6.3-1.3-1.7-2.9-2.9-4.7-3.7s-4.2-1.6-7.1-2.4c-2.2-.6-3.9-1.1-5.2-1.6-1.3-.5-2.3-1.2-3.1-2.1-.8-.9-1.2-2-1.2-3.3,0-2,.7-3.5,2-4.6s3-1.6,5.1-1.6,4.1.6,5.5,1.7,2.2,2.5,2.3,4.1h8c-.3-3.7-1.8-6.6-4.5-8.8-2.7-2.1-6.2-3.2-10.5-3.2s-5.6.5-7.9,1.5-4.1,2.5-5.3,4.4-1.9,4.1-1.9,6.7.6,4.9,1.9,6.6,2.6,2.8,4.4,3.6"/>
  <path class="cls-1" d="M196.6,38.2c-1.8-.8-4.1-1.6-7-2.3-2.3-.6-4.1-1.1-5.4-1.6-1.3-.5-2.4-1.2-3.2-2.2-.7-.8-1.1-1.7-1.3-2.9h-7.3c.1,2.6.7,4.7,1.9,6.3,1.3,1.7,2.9,2.9,4.7,3.7s4.2,1.6,7.1,2.4c2.2.6,3.9,1.1,5.2,1.6s2.3,1.2,3.1,2.1c.8.9,1.2,2,1.2,3.3,0,2-.7,3.5-2,4.6s-3,1.6-5.1,1.6-4.1-.6-5.5-1.7c-1.4-1.1-2.2-2.5-2.3-4.1h-8c.3,3.7,1.8,6.6,4.5,8.8,2.7,2.1,6.2,3.2,10.5,3.2s5.6-.5,7.9-1.5c2.3-1,4.1-2.5,5.3-4.4,1.3-1.9,1.9-4.1,1.9-6.7s-.6-4.9-1.9-6.6c-1-1.6-2.5-2.9-4.3-3.6"/>
</svg>